<svg width="987" height="839" viewBox="0 0 987 839" fill="none" xmlns="http://www.w3.org/2000/svg">
<g clip-path="url(#clip0_49_32)">
<path d="M603.509 842.24C595.895 839.55 589.961 835.706 583.505 834.357C542.403 825.774 536.287 818.838 536.466 777.434C536.652 734.67 517.643 699.722 491.745 667.817C471.667 643.081 444.827 641.061 414.584 642.372C346.821 645.308 280.661 638.178 229.556 585.812C220.715 576.752 214.963 564.303 209.229 552.705C204.735 543.615 202.475 533.421 199.199 523.648C186.386 527.855 175.286 532.932 163.646 535.083C102.081 546.456 30.0115 486.719 34.2258 424.382C35.8218 400.774 31.0756 382.977 18.929 364.452C12.8061 355.114 9.77845 343.747 4.3206 332.794C3.29 319.049 3.29 305.808 4.32665 290.538C6.7676 286.253 8.70619 284.168 9.4927 281.714C16.5605 259.661 25.8352 239.517 43.1656 222.681C52.2877 213.819 56.0953 199.461 62.2133 187.539C72.287 167.908 79.3627 145.873 92.9398 129.089C119.731 95.9689 157.127 84.2533 199.565 84.9919C210.979 85.1906 225.239 80.7371 233.54 73.2565C268.267 41.9644 307.869 33.4185 351.913 44.209C364.824 47.3722 373.573 44.2432 383.714 37.5276C396.753 28.8937 410.916 21.9361 424.727 14.5005C432.156 10.5004 439.86 7.01025 447.44 3.29004C461.774 3.29004 476.108 3.29004 492.378 4.28094C496.483 6.79711 498.499 9.33575 500.846 9.69114C524.707 13.3046 545.692 23.0218 564.373 38.1846C566.762 40.1234 570.37 41.4123 573.456 41.5017C593.969 42.0956 614.716 44.3381 634.964 42.1425C670.029 38.3402 693.374 53.6767 711.734 81.3963C714.516 85.5963 721.743 89.6769 726.544 89.284C784.806 84.5169 838.019 131.389 843.087 182.456C843.691 188.541 851.494 197.245 857.573 198.936C918.313 215.836 935.283 255.896 930.388 300.039C928.014 321.449 931.73 338.011 946.701 352.953C950.349 356.594 953.461 362.353 953.868 367.378C955.414 386.436 962.029 402.383 976.212 415.749C980.479 419.769 981.045 427.621 983.59 433.597C985.597 438.308 988.04 442.833 990.29 447.44C990.29 454.157 990.29 460.874 989.261 469.538C984.195 480.312 981.281 489.925 975.811 497.751C970.142 505.863 969.337 511.924 973.38 521.399C976.732 529.255 978.841 542.578 974.563 547.876C958.405 567.887 956.572 593.51 944.945 614.638C931.817 638.491 908.941 652.333 882.262 658.363C871.009 660.906 863.458 664.872 858.106 676.684C851.682 690.859 842.472 704.759 831.404 715.668C787.347 759.091 734.881 775.578 673.778 760.434C656.59 756.174 654.689 757.405 654.848 775.23C655.013 793.685 653.423 811.448 640.815 826.161C635.948 831.84 630.36 836.899 625.1 842.24C618.383 842.24 611.666 842.24 603.509 842.24ZM637.022 808.781C637.634 806.777 638.247 804.773 640.313 800.588C641.629 783.013 642.946 765.438 644.261 747.882C613.729 746.161 613.78 746.082 585.501 728.038C582.409 726.064 578.374 725.409 574.68 724.562C547.031 718.216 534.122 701.137 535.266 672.805C535.427 668.809 535.121 663.94 533.008 660.865C526.324 651.139 518.815 641.961 511.311 632.829C509.437 630.547 506.305 627.63 503.886 627.749C492.497 628.308 481.156 629.821 469.797 630.994C495.236 648.589 512.957 669.699 526.035 694.946C540.35 722.581 548.171 751.794 548.761 783.167C549.213 807.259 560.354 818.648 584.233 822.517C589.085 823.303 593.978 823.831 601.646 825.138C616.138 826.909 630.024 827.351 635.34 809.365C635.34 809.365 635.078 809.64 637.022 808.781ZM950.36 500.206C957.203 493.385 968.436 487.417 969.961 479.563C972.991 463.963 971.778 447.213 970.165 431.154C969.13 420.864 964.199 408.774 950.919 411.516C939.112 413.953 932.034 422.941 939.008 438.165C932.395 436.519 927.453 434.321 922.802 431.619C905.233 421.41 893.459 421.924 875.989 434.166C872.307 435.863 868.625 437.56 867.026 438.297C879.138 451.776 892.794 463.723 902.341 478.353C916.818 500.537 920.589 503.722 950.36 500.206ZM874.735 421.631C903.478 402.6 911.136 374.897 905.762 342.797C900.142 309.231 879.263 287.108 850.167 284.373C835.59 283.003 819.899 283.61 812.069 299.92C804.975 314.697 798.713 329.872 790.484 346.438C785.427 354.847 780.198 363.158 775.344 371.683C751.814 413.013 718.196 442.514 672.108 455.222C627.784 467.444 583.04 473.879 540.573 446.471C526.311 470.172 504.321 482.472 478.876 486.943C456.43 490.888 433.287 490.769 410.495 492.9C401.531 493.738 392.074 494.293 383.885 497.578C343.602 513.735 305.651 510.046 269.839 485.819C265.362 482.791 262.458 477.438 258.826 473.163C260.204 471.757 261.583 470.352 262.961 468.947C267.67 471.902 272.43 474.78 277.079 477.826C308.67 498.524 341.717 501.953 377.299 488.497C388.983 484.079 402.237 482.335 414.831 482.067C462.998 481.042 511.626 482.14 536.349 430.314C550.782 437.447 563.983 446.841 578.63 450.607C608.422 458.267 638.423 453.855 667.741 445.395C731.083 427.115 763.798 378.489 790.541 320.624C798.289 295.121 809.9 270.075 812.979 244.021C819.34 190.209 767.88 149.39 716.51 164.828C711.128 166.445 704.948 169.7 701.917 174.106C688.338 193.851 669.801 206.465 648.233 215.857C639.907 219.483 632.58 225.402 622.686 231.396C607.725 253.241 615.258 272.141 639.238 281.203C657.458 288.087 665.853 272.479 681.356 268.56C684.18 268.397 687.005 268.234 690.381 270.332C689.169 272.997 688.529 277.448 686.655 278.049C667.591 284.158 656.349 296.587 652.435 316.334C651.851 319.282 646.775 323.567 643.906 323.469C626.396 322.868 613.367 331.656 601.856 342.902C591.139 353.374 581.588 353.674 568.13 346.766C555.947 340.514 541.407 336.518 527.729 335.974C492.958 334.589 466.438 353.678 442.308 376.017C430.952 386.53 420.204 387.505 406.644 380.358C368.112 360.05 331.9 364.945 297.818 391.637C292.071 396.138 284.556 399.693 277.399 400.856C245.361 406.061 225.791 422.157 218.521 454.009C215.028 469.314 215.781 485.538 213.719 501.229C207.818 546.14 230.331 578.852 264.994 599.719C318.478 631.916 379.697 639.923 439.828 626.689C490.203 615.602 539.395 612.705 589.62 620.246C647.557 628.945 705.218 639.494 763.181 647.993C799.769 653.357 822.017 635.774 828.215 599.538C828.826 595.963 829.807 592.451 830.922 587.576C837.199 588.815 842.447 589.927 847.724 590.879C869.856 594.871 891.748 593.852 911.915 583.548C926.858 575.914 942.294 567.766 954.293 556.439C960.764 550.33 962.343 537.078 962.435 527.016C962.48 522.139 954.669 514.04 949.275 512.927C938.459 510.696 926.86 512.264 915.5 512.264C910.548 523.744 917.852 539.739 904.703 549.509C901.497 528.009 900.848 507.626 895.004 488.861C888.828 469.028 873.525 455.639 851.112 449.547C850.411 455.503 849.803 459.669 849.446 463.857C847.267 489.457 837.669 511.705 818.547 529.085C783.051 561.346 742.351 570.285 696.666 554.844C679.351 548.992 661.362 542.545 644.146 552.182C621.649 564.775 599.514 564.741 576.166 556.299C555.859 548.957 537.97 552.229 521.667 567.556C507.121 581.234 489.051 587.978 468.768 584.952C448.14 581.875 429.552 571.614 406.712 574.76C389.195 577.172 380.423 580.154 380.029 600.202C379.923 605.563 380.013 610.929 380.013 616.292C377.78 616.194 375.548 616.095 373.316 615.996C362.203 597.679 372.922 580.923 380.931 565.812C376.635 555.215 361.627 551.558 366.555 534.441C371.908 539.49 374.235 542.61 377.327 544.437C389.299 551.512 401.72 563.971 413.59 563.551C429.11 563.002 442.343 565.37 456.216 570.654C475.581 578.029 495.295 576.724 510.17 562.294C533.469 539.693 558.848 537.936 587.457 548.105C604.279 554.085 620.177 552.544 636.48 543.862C645.65 538.978 657.503 536.591 667.903 537.206C680.762 537.966 693.52 542.502 706.057 546.283C777.574 567.852 847.931 512.632 838.344 443.491C837.771 439.359 839.161 434.954 840.457 430.654C840.457 430.654 841.204 430.318 843.949 430.771C853.517 428.038 863.084 425.304 874.735 421.631ZM514.13 295.023C514.13 304.752 514.13 314.481 514.13 319.504C535.854 326.27 557.122 333.411 578.75 339.202C583.206 340.395 589.466 337.391 594.106 334.869C606.454 328.159 617.603 317.871 630.68 314.263C643.386 310.758 645.425 304.467 646.063 294.364C611.843 284.168 604.581 275.334 604.147 241.108C615.112 230.254 625.346 218.489 637.31 208.879C644.767 202.89 655.29 200.904 663.664 195.842C712.951 166.05 716.7 102.328 689.295 70.8576C662.879 40.5212 630.417 61.2011 600.804 59.4635C583.786 58.4649 569.235 67.8432 559.031 81.8862C555.606 86.5993 554.855 93.2164 551.585 98.0934C548.891 102.11 544.65 107.083 540.46 107.772C516.815 111.656 506.93 128.096 500.89 148.565C499.74 152.461 499.037 156.488 498.128 160.455C496.961 159.137 495.794 157.82 494.627 156.503C488.67 158.776 481.372 159.586 477.004 163.592C462.933 176.491 457.45 193.741 457.58 212.417C457.674 225.997 459.404 239.566 457.842 253.118C455.643 251.885 452.309 251.197 451.414 249.337C436.509 218.33 449.506 168.201 477.361 148.221C508.839 125.642 510.974 98.9072 484.102 70.813C480.574 67.124 479.488 61.0989 479.607 56.1407C501.322 64.9787 507.778 84.8572 514.788 106.106C524.359 100.614 535.121 97.0434 542.077 89.8115C551.573 79.9392 558.17 67.2786 566.136 55.6287C521.053 19.087 456.6 5.50518 431.99 27.202C443.388 31.8051 455.748 36.0676 467.313 41.9062C470.84 43.6871 472.178 49.805 472.537 54.7417C467.118 52.4124 461.741 49.9804 456.274 47.7712C430.32 37.2839 405.568 32.9323 381.11 53.588C375.013 58.7366 361.445 58.4708 352.459 56.1828C309.023 45.1226 271.064 53.4245 239.541 85.6147C229.801 95.5608 219.819 99.4071 206.024 97.7818C143.146 90.3736 87.7745 130.24 73.0849 191.735C70.2682 203.526 63.5877 214.395 56.6474 226.724C16.7163 262.992 6.69536 318.837 33.0892 364.18C38.4858 373.451 47.8536 380.41 57.1383 390.295C44.0053 406.225 40.8102 427.824 49.7223 451.03C58.4431 473.738 73.0478 491.781 92.9931 505.549C127.178 529.147 166.917 530.274 192.237 507.644C189.129 506.955 186.689 506.354 184.225 505.878C136.584 496.676 116.612 471.836 115.538 423.299C115.379 416.107 109.114 407.42 103.156 402.431C96.7453 397.063 87.3065 395.379 79.2995 391.837C56.4867 381.747 45.6194 362.734 49.7517 338.994C52.7262 321.904 62.7947 309.497 76.5139 299.064C80.9463 295.693 82.3031 288.277 85.2447 279.979C84.9599 277.257 84.7357 274.526 84.3811 271.813C78.5926 227.516 92.0325 204.485 133.189 187.164C136.511 185.766 139.867 181.878 141.073 178.405C162.639 116.321 213.223 90.0059 277.128 107.425C281.321 108.568 288.225 107.243 291.131 104.332C303.546 91.9007 319.117 90.0237 335.08 89.7191C338.665 89.6507 342.332 93.8405 345.961 96.0701C342.425 97.746 339.034 99.9118 335.327 101.006C324.071 104.33 309.728 104.024 302.074 111.082C291.28 121.034 283.341 121.678 270.354 117.288C218.37 99.7165 159.757 133.576 152.458 184.351C156.733 186.624 161.007 188.898 165.282 191.171C165.655 193.482 166.029 195.794 166.402 198.105C140.569 194.326 117.583 198.059 103.652 220.003C89.7232 241.945 93.5934 265.364 98.4366 288.557C119.014 286.464 137.031 282.705 154.24 294.972C136.231 297.151 118.222 299.329 97.8748 301.664C91.1459 305.18 83.6823 307.762 77.8167 312.376C54.0001 331.109 50.1097 371.641 89.7358 384.547C97.4701 387.066 106.891 389.348 111.616 395.009C118.75 403.558 126.924 415.049 126.769 425.17C126.258 458.628 140.376 481.865 172.143 492.143C196.327 499.968 201.352 496.66 203.729 471.364C203.933 469.184 204.119 466.999 204.447 464.836C210.951 421.973 233.851 398.587 275.007 389.989C284.942 387.913 293.758 380.477 301.33 376.443C293.53 361.585 282.603 349.6 281.594 336.833C279.975 316.319 269.277 306.556 253.564 296.822C258.5 295.941 264.373 292.898 268.208 294.56C283.604 301.229 290 314.297 292.233 330.72C296.033 358.676 308.695 366.768 335.44 360.22C341.761 358.673 348.218 357.681 357.422 357.164C362.69 357.164 367.958 357.164 373.226 357.164C371.951 355.966 370.676 354.768 369.401 353.57C376.007 342.211 383.475 331.245 388.901 319.348C392.229 312.049 392.429 303.324 393.762 293.133C388.219 285.826 382.675 278.519 377.074 271.173C377.074 271.173 377.033 271.345 379.566 270.431C396.934 268.169 400.151 282.635 406.687 295.945C402.515 307.233 400.886 320.694 393.551 329.281C383.5 341.047 383.316 350.425 392.749 360.46C404.492 372.954 424.653 375.493 434.501 368.208C450.174 356.614 465.767 344.559 482.779 335.221C502.04 324.648 507.962 312.378 500.074 287.184C490.482 280.004 480.717 273.04 471.384 265.538C467.604 262.499 464.768 258.287 463.992 254.087C490.034 254.789 506.552 267.893 514.13 295.023ZM769.169 660.492C688.001 646.966 607.404 629.017 523.137 628.961C527.272 637.811 531.778 646.283 538.828 650.5C547.3 655.568 549.157 659.256 547.541 669.486C545.993 679.279 547.583 695.538 553.819 699.521C576.477 713.991 601.351 725.209 626.06 736.137C635.091 740.131 646.498 738.473 655.957 741.83C696.055 756.058 735.77 758.414 775.224 740.298C809.804 724.42 834.827 699.209 850.827 662.066C836.094 662.847 823.701 664.199 811.337 663.969C798.229 663.724 785.15 661.975 769.169 660.492ZM911.776 322.02C912.233 322.323 912.656 322.756 913.157 322.881C913.493 322.964 914.204 322.703 914.297 322.438C933.842 267.03 899.997 213.222 848.792 210.68C843.586 210.422 838.356 210.646 833.416 210.646C824.68 131.239 776.412 87.8345 718.042 104.92C716.967 120.395 715.889 135.902 714.714 152.814C749.729 147.213 780.802 153.294 804.166 181.245C827.556 209.225 829.038 241.56 819.466 275.596C870.678 270.531 890.908 280.606 911.776 322.02ZM902.144 637.869C933.74 616.827 946.031 598.497 938.844 581.085C909.227 602.49 875.874 607.352 843.182 602.07C833.32 619.796 824.528 635.599 813.155 656.041C844.077 649.965 872.013 644.475 902.144 637.869ZM922.003 418.174C934.048 410.723 946.892 403.726 945.615 386.505C944.229 367.805 937.313 352.289 921.416 343.256C916.323 366.895 911.384 389.827 906.281 413.511C909.226 414.475 914.323 416.145 922.003 418.174Z" fill="#251C1D"/>
<path d="M839.637 430.677C839.161 434.954 837.771 439.359 838.344 443.491C847.932 512.633 777.575 567.852 706.058 546.284C693.52 542.502 680.762 537.966 667.904 537.206C657.503 536.591 645.65 538.978 636.48 543.862C620.178 552.544 604.279 554.085 587.457 548.106C558.848 537.936 533.47 539.693 510.171 562.294C495.296 576.724 475.581 578.029 456.216 570.654C442.343 565.37 429.11 563.002 413.59 563.551C401.721 563.971 389.3 551.512 377.327 544.437C374.235 542.611 371.908 539.49 366.556 534.442C361.627 551.558 376.635 555.215 380.932 565.813C372.922 580.923 362.203 597.679 373.316 615.996C375.548 616.095 377.781 616.194 380.013 616.292C380.013 610.929 379.923 605.564 380.029 600.202C380.423 580.154 389.196 577.172 406.713 574.76C429.552 571.614 448.14 581.875 468.768 584.952C489.051 587.978 507.121 581.234 521.668 567.556C537.97 552.229 555.859 548.957 576.166 556.299C599.515 564.742 621.649 564.775 644.146 552.182C661.363 542.545 679.352 548.992 696.666 554.844C742.351 570.285 783.051 561.346 818.547 529.085C837.67 511.705 847.268 489.458 849.447 463.857C849.803 459.669 850.411 455.503 851.112 449.547C873.526 455.639 888.829 469.028 895.005 488.861C900.848 507.626 901.497 528.009 904.704 549.509C917.852 539.739 910.549 523.744 915.501 512.264C926.861 512.264 938.46 510.696 949.275 512.927C954.67 514.04 962.481 522.139 962.436 527.016C962.343 537.078 960.765 550.33 954.293 556.439C942.294 567.766 926.859 575.914 911.916 583.548C891.748 593.852 869.857 594.871 847.724 590.879C842.447 589.927 837.199 588.815 830.922 587.576C829.807 592.451 828.827 595.963 828.215 599.538C822.017 635.774 799.769 653.357 763.181 647.993C705.218 639.494 647.557 628.945 589.621 620.246C539.395 612.705 490.203 615.602 439.829 626.689C379.698 639.923 318.478 631.916 264.994 599.719C230.331 578.852 207.818 546.14 213.719 501.229C215.781 485.538 215.028 469.314 218.521 454.009C225.791 422.157 245.362 406.061 277.399 400.856C284.557 399.693 292.072 396.138 297.819 391.637C331.9 364.945 368.112 360.05 406.644 380.358C420.204 387.505 430.952 386.53 442.308 376.017C466.438 353.678 492.958 334.589 527.729 335.974C541.407 336.518 555.947 340.514 568.13 346.766C581.589 353.674 591.139 353.374 601.856 342.902C613.367 331.656 626.396 322.868 643.906 323.469C646.775 323.567 651.852 319.282 652.436 316.334C656.349 296.587 667.592 284.158 686.656 278.049C688.53 277.448 689.169 272.996 690.979 268.308C725.216 239.191 755.789 245.873 774.265 284.869C780.054 297.087 784.282 310.045 789.225 322.664C763.798 378.489 731.083 427.115 667.742 445.395C638.424 453.855 608.422 458.267 578.63 450.607C563.983 446.841 550.783 437.447 536.349 430.314C511.626 482.141 462.999 481.042 414.831 482.067C402.238 482.335 388.983 484.079 377.3 488.497C341.717 501.953 308.671 498.524 277.079 477.826C272.43 474.78 267.67 471.902 262.962 468.947C261.583 470.352 260.204 471.757 258.826 473.163C262.459 477.438 265.363 482.791 269.839 485.82C305.651 510.046 343.603 513.735 383.885 497.578C392.075 494.293 401.532 493.738 410.495 492.9C433.288 490.769 456.43 490.888 478.877 486.943C504.321 482.472 526.311 470.172 540.573 446.471C583.04 473.879 627.784 467.444 672.108 455.222C718.196 442.514 751.814 413.013 775.345 371.683C780.198 363.158 785.428 354.847 791.55 347.003C797.614 367.633 801.885 387.917 807.848 407.691C812.355 422.636 823.042 431.313 839.637 430.677Z" fill="#D02D34"/>
<path d="M477.271 56.156C479.488 61.0991 480.574 67.1242 484.102 70.8131C510.974 98.9074 508.839 125.642 477.361 148.221C449.506 168.202 436.509 218.33 451.414 249.337C452.309 251.197 455.643 251.885 459.403 253.493C460.964 253.867 461.503 254.609 461.503 254.609C464.768 258.287 467.604 262.499 471.384 265.538C480.717 273.04 490.482 280.004 499.018 288.605C490.368 296.47 480.476 301.525 475.592 309.607C457.909 338.871 448.682 338.992 428.713 310.083C423.714 302.846 414.089 298.803 406.59 293.292C400.151 282.635 396.934 268.169 378.429 269.384C376.62 264.399 377.299 259.284 375.059 256.712C359.052 238.331 360.8 218.236 370.175 198.51C376.684 184.813 387.131 173.019 394.022 159.462C400.063 147.578 406.104 134.708 407.585 121.752C409.273 106.975 399.523 95.8828 385.311 90.9778C374.65 87.2983 363.398 85.519 352.495 98.7228C358.162 99.6258 361.406 99.8117 364.45 100.69C373.776 103.378 384.937 104.024 391.839 109.744C401.347 117.624 398.704 129.87 392.82 139.919C379.425 162.793 365.532 185.375 350.902 207.103C318.19 198.975 287.108 197.827 258.628 216.893C223.406 190.696 191.474 181.579 179.554 197.143C205.763 201.035 230.725 206.023 250.157 225.457C238.412 239.924 229.067 255.506 215.89 266.496C203.211 277.07 186.571 282.895 169.773 291.814C188.789 299.407 203.681 292.992 216.004 281.921C227.283 271.788 237.311 259.832 246.041 247.383C263.305 222.767 285.989 211.024 316.042 213.015C328.001 213.808 340.024 213.624 352.129 215.307C351.01 239.243 356.536 258.67 377.132 271.213C382.675 278.519 388.219 285.826 392.777 294.482C383.98 305.65 375.212 314.876 368.639 325.466C362.714 335.013 359.193 346.052 354.612 356.434C348.218 357.681 341.761 358.673 335.44 360.221C308.695 366.768 296.033 358.676 292.233 330.72C290.001 314.297 283.604 301.23 268.208 294.56C264.373 292.899 258.5 295.942 252.455 298.609C247.564 311.056 242.979 321.512 240.179 332.425C235.415 350.996 227.405 357.52 208.6 354.887C201.645 353.913 194.397 352.133 188.233 348.906C158.714 333.448 129.521 317.368 100.213 301.509C118.222 299.33 136.231 297.151 154.24 294.972C137.031 282.706 119.014 286.465 98.4366 288.558C93.5934 265.364 89.7232 241.946 103.652 220.003C117.583 198.059 140.569 194.326 166.402 198.105C166.029 195.794 165.656 193.483 165.282 191.171C161.007 188.898 156.733 186.625 152.466 184.333C159.757 133.576 218.37 99.7166 270.354 117.289C283.341 121.678 291.28 121.034 302.074 111.082C309.728 104.024 324.071 104.33 335.327 101.006C339.034 99.9119 342.425 97.7462 345.961 96.0702C342.332 93.8407 338.665 89.6509 335.08 89.7193C319.117 90.0239 303.546 91.9008 291.131 104.333C288.225 107.243 281.321 108.568 277.128 107.425C213.223 90.006 162.639 116.321 141.073 178.406C139.867 181.878 136.511 185.766 133.189 187.164C92.0325 204.485 78.5927 227.516 84.3812 271.814C84.7357 274.527 84.9599 277.257 84.2798 280.718C75.1065 262.868 66.8982 244.279 58.6898 225.689C63.5878 214.395 70.2682 203.526 73.0849 191.735C87.7745 130.24 143.146 90.3737 206.024 97.7819C219.819 99.4073 229.801 95.561 239.541 85.6149C271.065 53.4246 309.023 45.1227 352.46 56.183C361.445 58.471 375.013 58.7367 381.11 53.5882C405.568 32.9324 430.32 37.2841 456.274 47.7714C461.741 49.9806 467.118 52.4125 474.215 54.8949C476.353 55.4173 476.812 55.7866 477.271 56.156ZM106.876 145.476C106.562 151.295 106.248 157.114 105.934 162.933C107.869 163.597 109.803 164.26 111.738 164.923C117.971 156.001 124.204 147.079 130.438 138.156C128.893 136.468 127.347 134.78 125.802 133.091C119.938 136.472 114.075 139.853 106.876 145.476Z" fill="#F75057"/>
<path d="M460.685 253.503C459.404 239.566 457.674 225.997 457.58 212.416C457.451 193.741 462.933 176.491 477.004 163.591C481.372 159.586 488.67 158.775 494.627 156.502C495.794 157.82 496.961 159.137 498.128 160.455C499.037 156.488 499.74 152.46 500.89 148.564C506.93 128.096 516.815 111.656 540.46 107.771C544.65 107.083 548.892 102.11 551.585 98.0931C554.856 93.2161 555.606 86.5991 559.031 81.8859C569.236 67.8429 583.786 58.4647 600.804 59.4633C630.417 61.2009 662.88 40.521 689.296 70.8573C716.7 102.328 712.952 166.05 663.665 195.842C655.291 200.903 644.767 202.89 637.311 208.879C625.346 218.488 615.113 230.254 602.588 242.774C595.141 255.4 589.767 266.675 583.264 277.256C568.124 301.891 551.602 305.356 514.152 292.609C506.552 267.892 490.034 254.789 462.748 254.348C461.503 254.608 460.965 253.866 460.685 253.503ZM673.93 133.739C690.625 115.045 687.322 84.0179 666.973 72.8285C663.342 70.8321 658.06 71.84 653.54 71.4606C653.234 75.5473 652.134 79.7612 652.765 83.6977C654.99 97.581 657.152 111.547 660.811 125.083C661.883 129.049 667.851 131.692 673.93 133.739ZM647.28 151.657C642.883 155.683 638.486 159.71 631.229 166.356C646.845 169.618 653.626 164.82 657.172 154.558C657.349 154.046 651.982 151.617 647.28 151.657Z" fill="#F85158"/>
<path d="M770.614 660.688C785.15 661.975 798.229 663.724 811.337 663.968C823.701 664.199 836.094 662.847 850.828 662.066C834.828 699.209 809.804 724.42 775.224 740.298C735.77 758.414 696.055 756.058 655.957 741.83C646.498 738.473 635.091 740.131 626.06 736.137C601.351 725.209 576.477 713.991 553.819 699.521C547.583 695.538 545.993 679.279 547.54 669.486C549.157 659.256 547.3 655.568 538.828 650.5C531.778 646.283 527.272 637.811 523.137 628.961C607.404 629.017 688.001 646.966 770.614 660.688Z" fill="#D02D34"/>
<path d="M99.0439 301.586C129.521 317.367 158.714 333.448 188.233 348.905C194.397 352.133 201.645 353.913 208.6 354.887C227.405 357.519 235.415 350.995 240.18 332.425C242.979 321.511 247.564 311.056 252.266 299.648C269.277 306.556 279.975 316.319 281.595 336.833C282.603 349.6 293.531 361.585 301.33 376.443C293.758 380.477 284.943 387.913 275.007 389.989C233.851 398.587 210.951 421.973 204.448 464.836C204.119 466.999 203.934 469.184 203.729 471.364C201.352 496.66 196.328 499.968 172.143 492.143C140.376 481.865 126.258 458.628 126.769 425.17C126.924 415.049 118.75 403.558 111.616 395.009C106.891 389.348 97.4701 387.066 89.7358 384.547C50.1097 371.641 54.0001 331.11 77.8167 312.376C83.6824 307.762 91.1459 305.18 99.0439 301.586Z" fill="#D02D34"/>
<path d="M789.882 321.644C784.282 310.045 780.053 297.088 774.264 284.87C755.789 245.873 725.215 239.192 690.703 267.178C687.005 268.234 684.18 268.397 679.156 268.076C672.249 264.006 667.641 260.279 662.813 256.862C650.192 247.928 637.475 239.129 624.797 230.277C632.579 225.403 639.907 219.484 648.233 215.858C669.801 206.466 688.338 193.851 701.917 174.107C704.948 169.7 711.128 166.445 716.51 164.828C767.88 149.391 819.34 190.209 812.979 244.022C809.899 270.076 798.289 295.122 789.882 321.644Z" fill="#F85057"/>
<path d="M57.6686 226.206C66.8981 244.278 75.1065 262.867 84.1908 282.084C82.3031 288.277 80.9464 295.692 76.5139 299.063C62.7947 309.497 52.7263 321.904 49.7517 338.993C45.6194 362.734 56.4867 381.747 79.2995 391.837C87.3066 395.378 96.7453 397.063 103.156 402.431C109.114 407.419 115.379 416.107 115.538 423.298C116.612 471.836 136.584 496.676 184.225 505.878C186.689 506.354 189.129 506.955 192.237 507.643C166.917 530.273 127.178 529.146 92.9931 505.549C73.0478 491.781 58.4431 473.738 49.7223 451.029C40.8102 427.823 44.0054 406.224 57.1383 390.295C47.8536 380.41 38.4858 373.45 33.0892 364.179C6.69536 318.837 16.7163 262.991 57.6686 226.206Z" fill="#CF2D34"/>
<path d="M911.347 320.988C890.909 280.606 870.678 270.531 819.466 275.596C829.038 241.56 827.556 209.225 804.167 181.244C780.802 153.293 749.729 147.213 714.714 152.814C715.89 135.902 716.967 120.395 718.042 104.92C776.412 87.8343 824.681 131.239 833.417 210.645C838.357 210.645 843.587 210.422 848.792 210.68C899.998 213.221 933.842 267.03 914.298 322.437C914.204 322.703 913.493 322.964 913.157 322.881C912.657 322.756 912.233 322.322 911.347 320.988Z" fill="#F55057"/>
<path d="M840.047 430.665C823.042 431.313 812.355 422.635 807.848 407.691C801.885 387.917 797.614 367.633 792.35 346.22C798.713 329.872 804.975 314.697 812.069 299.92C819.899 283.61 835.591 283.003 850.167 284.373C879.264 287.108 900.142 309.231 905.762 342.797C911.136 374.897 903.478 402.6 872.299 421.794C859.014 420.301 848.267 418.993 841.204 430.317C841.204 430.317 840.457 430.654 840.047 430.665ZM871.677 347.686C874.417 352.354 877.158 357.022 879.898 361.69C883.902 356.568 891.621 351.053 891.13 346.407C890.131 336.964 885.617 327.428 880.558 319.149C878.932 316.487 871.043 317.653 866.02 317.068C865.666 321.45 864.348 326.032 865.203 330.165C866.277 335.354 869.131 340.174 871.677 347.686ZM875.954 394.862C877.831 392.923 880.834 391.239 881.343 388.991C882.305 384.742 881.833 380.168 881.957 375.729C878.63 375.859 873.435 374.708 872.313 376.347C868.222 382.32 865.492 389.225 862.249 395.779C866.094 395.909 869.939 396.04 875.954 394.862Z" fill="#F85258"/>
<path d="M598.852 824.479C593.978 823.831 589.085 823.303 584.233 822.517C560.354 818.648 549.213 807.258 548.76 783.167C548.171 751.794 540.35 722.581 526.035 694.946C512.957 669.699 495.235 648.589 469.797 630.994C481.155 629.821 492.497 628.308 503.886 627.749C506.305 627.63 509.437 630.547 511.311 632.829C518.815 641.961 526.324 651.139 533.008 660.865C535.121 663.94 535.427 668.809 535.266 672.805C534.122 701.137 547.03 718.216 574.68 724.562C578.374 725.409 582.408 726.064 585.501 728.038C613.78 746.082 613.729 746.161 644.261 747.882C642.946 765.438 641.629 783.013 639.003 802.481C636.822 806.129 635.95 807.885 635.077 809.64C635.077 809.64 635.34 809.365 634.243 809.582C621.715 814.692 610.284 819.585 598.852 824.479Z" fill="#CD2D34"/>
<path d="M514.141 293.816C551.602 305.357 568.124 301.891 583.264 277.256C589.767 266.675 595.141 255.4 601.96 243.643C604.582 275.334 611.843 284.168 646.064 294.364C645.426 304.467 643.387 310.758 630.68 314.263C617.604 317.871 606.454 328.159 594.106 334.869C589.466 337.391 583.207 340.396 578.751 339.202C557.122 333.411 535.855 326.27 514.13 319.504C514.13 314.481 514.13 304.752 514.141 293.816Z" fill="#CD2D34"/>
<path d="M475.206 54.4924C472.178 49.8051 470.84 43.6873 467.313 41.9064C455.748 36.0677 443.388 31.8053 431.99 27.2022C456.6 5.50536 521.053 19.0872 566.136 55.6289C558.17 67.2787 551.573 79.9394 542.077 89.8117C535.121 97.0436 524.359 100.614 514.788 106.106C507.778 84.8574 501.322 64.9788 478.439 56.1484C476.812 55.7867 476.353 55.4173 475.206 54.4924Z" fill="#F75057"/>
<path d="M406.639 294.618C414.089 298.803 423.714 302.846 428.713 310.083C448.682 338.991 457.91 338.87 475.592 309.607C480.476 301.525 490.368 296.469 499.116 289.769C507.962 312.378 502.04 324.648 482.779 335.221C465.768 344.559 450.174 356.614 434.501 368.208C424.654 375.493 404.493 372.954 392.749 360.46C383.317 350.425 383.5 341.047 393.551 329.281C400.886 320.694 402.515 307.233 406.639 294.618Z" fill="#CF2D34"/>
<path d="M901.047 638.428C872.013 644.476 844.077 649.965 813.156 656.041C824.529 635.599 833.321 619.796 843.183 602.07C875.875 607.352 909.228 602.491 938.845 581.085C946.032 598.498 933.74 616.827 901.047 638.428Z" fill="#CB2C33"/>
<path d="M878.097 433.836C893.46 421.924 905.233 421.41 922.803 431.619C927.453 434.321 932.396 436.519 939.008 438.165C932.035 422.941 939.113 413.953 950.92 411.515C964.2 408.774 969.131 420.863 970.165 431.154C971.779 447.212 972.991 463.962 969.962 479.563C968.437 487.416 957.204 493.385 948.469 499.101C932.838 470.153 913.102 448.657 883.205 437.777C881.279 437.076 879.789 435.177 878.097 433.836Z" fill="#F65057"/>
<path d="M623.742 230.836C637.476 239.129 650.193 247.927 662.814 256.861C667.641 260.278 672.249 264.006 678.078 268.204C665.853 272.479 657.458 288.087 639.238 281.202C615.257 272.141 607.725 253.241 623.742 230.836Z" fill="#CF2D34"/>
<path d="M877.043 434.001C879.789 435.177 881.279 437.076 883.204 437.777C913.102 448.657 932.838 470.154 947.273 498.886C920.59 503.722 916.818 500.537 902.342 478.353C892.795 463.723 879.139 451.775 867.026 438.297C868.625 437.56 872.308 435.863 877.043 434.001Z" fill="#CD2D34"/>
<path d="M920.713 417.995C914.324 416.145 909.227 414.475 906.282 413.511C911.384 389.827 916.324 366.895 921.417 343.256C937.314 352.289 944.23 367.805 945.616 386.505C946.893 403.726 934.048 410.723 920.713 417.995Z" fill="#F14F56"/>
<path d="M356.017 356.799C359.193 346.052 362.714 335.013 368.639 325.466C375.212 314.876 383.98 305.65 392.913 295.535C392.429 303.324 392.229 312.049 388.901 319.348C383.475 331.245 376.007 342.211 369.401 353.57C370.676 354.768 371.951 355.966 373.226 357.164C367.958 357.164 362.69 357.164 356.017 356.799Z" fill="#C82D34"/>
<path d="M600.25 824.808C610.284 819.585 621.716 814.692 634.381 809.713C630.025 827.351 616.139 826.908 600.25 824.808Z" fill="#EE4B52"/>
<path d="M842.577 430.544C848.267 418.992 859.014 420.3 871.258 422.264C863.084 425.304 853.517 428.037 842.577 430.544Z" fill="#D02D34"/>
<path d="M636.05 809.211C635.95 807.885 636.822 806.129 638.276 803.572C638.247 804.773 637.634 806.777 636.05 809.211Z" fill="#EE4B52"/>
<path d="M352.018 213.885C340.024 213.624 328.001 213.807 316.042 213.015C285.989 211.024 263.305 222.767 246.041 247.383C237.311 259.832 227.283 271.787 216.004 281.92C203.681 292.992 188.789 299.406 169.773 291.814C186.57 282.894 203.211 277.07 215.89 266.495C229.066 255.506 238.412 239.923 250.157 225.457C230.725 206.023 205.763 201.035 179.554 197.143C191.474 181.578 223.406 190.695 258.628 216.892C287.107 197.827 318.19 198.975 350.953 208.07C351.968 211.302 351.993 212.594 352.018 213.885Z" fill="#2E1E20"/>
<path d="M352.129 215.307C351.993 212.593 351.969 211.302 351.893 209.043C365.533 185.375 379.425 162.793 392.82 139.919C398.705 129.87 401.347 117.624 391.839 109.743C384.938 104.024 373.776 103.378 364.45 100.689C361.406 99.8114 358.162 99.6255 352.495 98.7225C363.398 85.5187 374.65 87.298 385.312 90.9775C399.523 95.8824 409.274 106.974 407.585 121.752C406.104 134.707 400.063 147.577 394.022 159.462C387.131 173.019 376.685 184.813 370.175 198.51C360.8 218.236 359.052 238.33 375.059 256.711C377.299 259.284 376.62 264.399 377.162 269.841C377.033 271.345 377.075 271.173 377.103 271.192C356.537 258.669 351.011 239.242 352.129 215.307Z" fill="#291D1F"/>
<path d="M107.544 144.355C114.075 139.853 119.938 136.472 125.802 133.091C127.347 134.78 128.893 136.468 130.438 138.156C124.204 147.079 117.971 156.001 111.738 164.923C109.803 164.26 107.869 163.597 105.934 162.933C106.248 157.114 106.562 151.295 107.544 144.355Z" fill="#FFF6F7"/>
<path d="M672.752 134.341C667.851 131.692 661.883 129.05 660.81 125.083C657.151 111.547 654.99 97.5813 652.765 83.698C652.134 79.7615 653.234 75.5476 653.54 71.4609C658.06 71.8403 663.342 70.8324 666.973 72.8288C687.322 84.0182 690.624 115.046 672.752 134.341Z" fill="#FFF9FA"/>
<path d="M648.238 150.869C651.981 151.617 657.348 154.046 657.171 154.559C653.626 164.82 646.844 169.618 631.229 166.356C638.486 159.71 642.883 155.683 648.238 150.869Z" fill="#FEEEEF"/>
<path d="M871.448 346.42C869.132 340.175 866.278 335.354 865.204 330.165C864.349 326.032 865.667 321.45 866.02 317.068C871.044 317.653 878.932 316.487 880.559 319.149C885.618 327.428 890.132 336.964 891.13 346.407C891.622 351.054 883.902 356.568 879.899 361.69C877.158 357.022 874.418 352.354 871.448 346.42Z" fill="#FFF6F7"/>
<path d="M874.869 395.516C869.939 396.04 866.094 395.909 862.249 395.779C865.492 389.225 868.222 382.32 872.313 376.347C873.435 374.708 878.63 375.859 881.957 375.729C881.833 380.168 882.305 384.742 881.343 388.991C880.834 391.239 877.831 392.923 874.869 395.516Z" fill="#FFF3F4"/>
</g>
<defs>
<clipPath id="clip0_49_32">
<rect width="987" height="838.95" fill="white"/>
</clipPath>
</defs>
</svg>
